# xmcd
# 
# Track frame offsets:
#     182
#     12400
#     25457
#     39335
#     50982
#     61112
#     70150
#     81762
#     100630
#     110722
#     122050
#     131092
#     146140
#     160635
#     180422
#     190935
#     206967
#     222585
# 
# Disc length: 3184
# 
# Revision: 5
# Processed by: cddbd v1.5.2PL0 Copyright (c) Steve Scherf et al.
# Submitted via: fre:ac v1.0.27
# 
DISCID=0d0c6e12
DTITLE=Lyle Lovett - I Love Everybody
DYEAR=1994
DGENRE=Jazz-influenced Rock
TTITLE0=Skinny Legs
TTITLE1=Fat Babies
TTITLE2=I Think You Know What I Mean
TTITLE3=Hello Grandma
TTITLE4=Creeps Like Me
TTITLE5=Sonja
TTITLE6=They Don't Like Me
TTITLE7=Record Lady
TTITLE8=Ain't It Somethin'
TTITLE9=Penguins
TTITLE10=The Fat Girl
TTITLE11=La to the Left
TTITLE12=Old Friend
TTITLE13=Just the Morning
TTITLE14=Moon on My Shoulder
TTITLE15=I've Got the Blues
TTITLE16=Good-bye to Carolina
TTITLE17=I Love Everybody
EXTD=YEAR: 1994
EXTT0=
EXTT1=
EXTT2=
EXTT3=
EXTT4=
EXTT5=
EXTT6=
EXTT7=
EXTT8=
EXTT9=
EXTT10=
EXTT11=
EXTT12=
EXTT13=
EXTT14=
EXTT15=
EXTT16=
EXTT17=
PLAYORDER=
